<svg xmlns="http://www.w3.org/2000/svg" viewBox="0 0 115 100">
  <defs>
    <clipPath id="a">
      <path fill="none" d="M0 0h115v100H0z" transform="translate(8 390)"/>
    </clipPath>
  </defs>
  <g clip-path="url(#a)" transform="translate(-8 -390)">
    <path fill="#e9f7f0" d="M-120 388h242.7v112.6H-120z"/>
    <path fill="#b2cfd1" d="M69.8 425.9h26A1.2 1.2 0 0 1 97 427V468a1.2 1.2 0 0 1-1.2 1.2h-26a1.2 1.2 0 0 1-1.2-1.2v-41a1.2 1.2 0 0 1 1.2-1.1z"/>
    <path fill="#7fafb3" d="M74.7 431.5a.6.6 0 0 1 .6-.6h23.4a.5.5 0 0 1 0 1H75.3a.6.6 0 0 1-.6-.4zm0 8.6a.6.6 0 0 1 .6-.6h23.4a.5.5 0 0 1 0 1.1H75.3a.6.6 0 0 1-.6-.5zm0 8.8a.6.6 0 0 1 .6-.5h23.4a.5.5 0 0 1 0 1H75.3a.6.6 0 0 1-.6-.5zm0-13a.6.6 0 0 1 .6-.6h23.4a.5.5 0 0 1 0 1H75.3a.6.6 0 0 1-.6-.5zm0 8.7a.6.6 0 0 1 .6-.6h23.4a.6.6 0 0 1 0 1.1H75.3a.6.6 0 0 1-.6-.5zm0 8.7a.6.6 0 0 1 .6-.5h23.4a.5.5 0 0 1 0 1H75.3a.6.6 0 0 1-.6-.5z"/>
    <path fill="#bee7d3" d="M84 396.4h26a1.2 1.2 0 0 1 1.2 1.2V468a1.2 1.2 0 0 1-1.1 1.2H83.9a1.2 1.2 0 0 1-1.1-1.2v-70.4a1.2 1.2 0 0 1 1.1-1.2z"/>
    <path fill="#e9f7f0" d="M101 403.5a.3.3 0 0 1 .4-.3h3.8a.3.3 0 0 1 .3.3v3.9a.3.3 0 0 1-.3.3h-3.8a.3.3 0 0 1-.3-.3zm0 18.5a.3.3 0 0 1 .4-.3h3.8a.3.3 0 0 1 .3.3v3.8a.3.3 0 0 1-.3.3h-3.8a.3.3 0 0 1-.3-.3zm0 18.5a.3.3 0 0 1 .4-.3h3.8a.3.3 0 0 1 .3.3v3.8a.3.3 0 0 1-.3.3h-3.8a.3.3 0 0 1-.3-.3zm0-27.8a.3.3 0 0 1 .4-.3h3.8a.3.3 0 0 1 .3.3v3.9a.3.3 0 0 1-.3.3h-3.8a.3.3 0 0 1-.3-.3zm0 18.6a.3.3 0 0 1 .4-.3h3.8a.3.3 0 0 1 .3.3v3.8a.3.3 0 0 1-.3.3h-3.8a.3.3 0 0 1-.3-.3zm0 18.4a.3.3 0 0 1 .4-.3h3.8a.3.3 0 0 1 .3.3v3.8a.3.3 0 0 1-.3.3h-3.8a.3.3 0 0 1-.3-.3zM89 403.5a.3.3 0 0 1 .3-.3H93a.3.3 0 0 1 .4.3v3.9a.3.3 0 0 1-.4.3h-3.8a.3.3 0 0 1-.3-.3zm0 18.5a.3.3 0 0 1 .3-.3H93a.3.3 0 0 1 .4.3v3.8a.3.3 0 0 1-.4.3h-3.8a.3.3 0 0 1-.3-.3zm0 18.5a.3.3 0 0 1 .3-.3H93a.3.3 0 0 1 .4.3v3.8a.3.3 0 0 1-.4.3h-3.8a.3.3 0 0 1-.3-.3zm0-27.7a.3.3 0 0 1 .3-.4H93a.3.3 0 0 1 .4.4v3.8a.3.3 0 0 1-.4.3h-3.8a.3.3 0 0 1-.3-.3zm0 18.5a.3.3 0 0 1 .3-.3H93a.3.3 0 0 1 .4.3v3.8a.3.3 0 0 1-.4.3h-3.8a.3.3 0 0 1-.3-.3zm0 18.4a.3.3 0 0 1 .3-.3H93a.3.3 0 0 1 .4.3v3.8a.3.3 0 0 1-.4.3h-3.8a.3.3 0 0 1-.3-.3z"/>
    <path fill="#b8e0e6" d="M101 429.3h20.4a1.2 1.2 0 0 1 1.2 1.2V482a1.2 1.2 0 0 1-1.2 1.1h-20.3a1.2 1.2 0 0 1-1.2-1.1v-51.5a1.2 1.2 0 0 1 1.2-1.2z"/>
    <path fill="#8accd5" d="M107.3 434a.5.5 0 0 1 .5-.4h10a.5.5 0 0 1 0 1h-10a.5.5 0 0 1-.5-.5zm0 4.4a.5.5 0 0 1 .5-.5h10a.5.5 0 0 1 0 1h-10a.5.5 0 0 1-.5-.5zm0 4.4a.6.6 0 0 1 .5-.5h10a.5.5 0 0 1 0 1h-10a.6.6 0 0 1-.5-.5zm0 8.8a.5.5 0 0 1 .5-.5h10a.5.5 0 0 1 0 1h-10a.5.5 0 0 1-.5-.5zm0-4.4a.5.5 0 0 1 .5-.5h10a.5.5 0 0 1 0 1h-10a.5.5 0 0 1-.5-.5zm0 8.6a.5.5 0 0 1 .5-.5h10a.5.5 0 0 1 0 1h-10a.5.5 0 0 1-.5-.4zm0 4.4a.6.6 0 0 1 .5-.5h10a.5.5 0 0 1 0 1h-10a.6.6 0 0 1-.5-.5z"/>
    <path fill="#bee7d3" d="M-66.1 500.6h188.7v-38.5s-27.5-8-62.2-5-58.7 16.7-77.7 24.3l-48.8 19.2z"/>
    <path fill="#93d8b5" d="M-28.6 500.6h151.2v-39.1a141.4 141.4 0 0 0-39.6-5c-22.8.2-40.1 16.3-62.9 24.6s-48.7 19.5-48.7 19.5z"/>
    <path fill="#169aac" d="M66.4 449.4a7 7 0 0 0-7 7c0 5.4 7 13.2 7 13.2s7-7.8 7-13.1a7 7 0 0 0-7-7z"/>
    <path fill="#0f6c78" d="M63 456.4a3.4 3.4 0 1 1 3.4 3.3 3.4 3.4 0 0 1-3.3-3.3z"/>
    <path fill="#222" d="M61.5 472.7c0-.7 2.2-1.2 5-1.2s4.8.5 4.8 1.2-2.2 1.3-4.9 1.3-5-.6-5-1.3z" opacity=".1" style="mix-blend-mode:multiply;isolation:isolate"/>
    <path fill="#ffe447" d="M36.3 436.8a11.8 11.8 0 0 0-11.9 11.8c0 8.9 11.9 22 11.9 22s11.8-13.1 11.8-22a11.8 11.8 0 0 0-11.8-11.8z"/>
    <path fill="#b29f32" d="M31.1 448.3a5.3 5.3 0 1 1 5.4 5.4 5.3 5.3 0 0 1-5.4-5.4z"/>
    <path fill="#222" d="M30.3 474c0-.9 2.6-1.5 6-1.5s5.9.6 5.9 1.5-2.7 1.5-6 1.5-6-.7-6-1.5z" opacity=".1" style="mix-blend-mode:multiply;isolation:isolate"/>
    <path fill="#4c9095" d="M100.8 484a9.2 9.2 0 0 1-9.2-9.2c0-4.1 3.7-21.2 9.2-21.2s9.3 17 9.3 21.2a9.2 9.2 0 0 1-9.3 9.2zm0-1.2z"/>
    <path fill="#e5cc41" d="M100.2 491.3V475l-4-4 .8-.9 3.2 3.2v-7.6h1.3v4.6l2.6-2.6.8.8-3.4 3.5v5.6l2.6-2.6.8.8-3.4 3.5v11.9z"/>
  </g>
</svg>
