<svg xmlns="http://www.w3.org/2000/svg" xmlns:xlink="http://www.w3.org/1999/xlink" viewBox="0 0 114 100">
  <defs>
    <clipPath id="b">
      <path fill="none" d="M0 0h114v100H0z" transform="translate(9 506)"/>
    </clipPath>
    <linearGradient id="a" x2=".9" y2="1" gradientUnits="objectBoundingBox">
      <stop offset="0" stop-color="#b8e0e6"/>
      <stop offset="1" stop-color="#fff"/>
    </linearGradient>
    <linearGradient id="c" x1="1" x2="1.8" y1=".2" xlink:href="#a"/>
    <linearGradient id="d" x1=".1" x2="2.4" y1="1" y2="-1.4" xlink:href="#a"/>
    <linearGradient id="e" x1=".5" x2="1" y2="1.5" gradientUnits="objectBoundingBox">
      <stop offset="0" stop-color="#b8e0e6"/>
      <stop offset="1" stop-color="#fff"/>
    </linearGradient>
  </defs>
  <g clip-path="url(#b)" transform="translate(-9 -506)">
    <path fill="#d0e3e5" d="M-103.5 487.2h242.7v121h-242.7z"/>
    <path fill="#e5eff0" d="M-103.5 608.2v-121h152a123.1 123.1 0 0 1 56.6 102.2 117.9 117.9 0 0 1-1.5 18.8z"/>
    <path fill="#fff" d="M21.5 575.4h89v32.8h-89z"/>
    <path fill="#b8e0e6" d="M25.3 574.3h14v34h-14z"/>
    <path fill="#006169" d="M25.2 577.2h14.1v6z"/>
    <path fill="url(#a)" d="M1997 1016h12.1v20.4H1997z" transform="translate(-1950 -440.6)"/>
    <path fill="url(#a)" d="M2160.1 1016h12.1v20.4h-12.1z" transform="translate(-2101 -440.6)"/>
    <path fill="#b2cfd1" d="M46 596.3v-22.5h26v22.5zm25-1.2V575H59.6v20zm-24 0h11.5V575H47z"/>
    <path fill="url(#a)" d="M1997 1016h12.1v20.4H1997z" transform="translate(-1918.7 -440.6)"/>
    <path fill="url(#a)" d="M2160.1 1016h12.1v20.4h-12.1z" transform="translate(-2069.7 -440.6)"/>
    <path fill="#b2cfd1" d="M77.1 596.3v-22.5h26.2v22.5zm25.1-1.2V575H90.7v20zm-24 0h11.5V575H78z"/>
    <path fill="rgba(34,34,34,0.1)" d="M39.3 577.2h71.2l-7 6H39.4z" style="mix-blend-mode:multiply;isolation:isolate"/>
    <path fill="#006169" d="M45.8 557.3c0-.5.1-.9.4-.9H71c.2 0 .4.4.4.9V568c0 .4-.2.8-.4.8H46c-.2 0-.3-.4-.3-.8z"/>
    <path fill="#148a9b" d="M26.3 556.4h14.2a1 1 0 0 1 1 1V571a1 1 0 0 1-1 1H26.3a1 1 0 0 1-1-1v-13.4a1 1 0 0 1 1-1zM69.3 541.2h30.3a1 1 0 0 1 1 1v29.2a1 1 0 0 1-1 1H69.3a1 1 0 0 1-1-1v-29.2a1 1 0 0 1 1-1z"/>
    <path fill="#b8e0e6" d="M43.2 546l7.2 10.4v15h-7.2z"/>
    <path fill="url(#c)" d="M2320.1 712h7.3v17h-7.3z" transform="translate(-2248.6 -159.2)"/>
    <path fill="url(#d)" d="M1 0h26.3a1 1 0 0 1 1 1v17.7H0V1a1 1 0 0 1 1-1z" transform="translate(82 551.1)"/>
    <path fill="#148a9b" d="M95.3 552.8h12.2v17H95.3z"/>
    <path fill="#006169" d="M95.3 552.8v8.9l12.2-9z"/>
    <path fill="#fff" d="M39.3 546h4v24.8h-4zM67.5 567.7v-6.5h-2.6v6.5h-1v-6.5h-2.6v6.5h-1v-6.5h-2.6v6.5h-1v-6.5H54v6.5h-1v-6.5h-2.5v6.5h-1v-6.5H47v6.5h-1v-7.5h22.5v7.5z"/>
    <path fill="url(#e)" d="M2320.1 712h7.3v6.1h-7.3z" transform="translate(-2248.6 -167.9)"/>
    <path fill="#4c9095" d="M17.7 567.6h96.8a1 1 0 0 1 1 1v7.6a1 1 0 0 1-1 1H17.7a1 1 0 0 1-1-1v-7.6a1 1 0 0 1 1-1z"/>
    <path fill="#004449" d="M102.8 531.4a12.7 12.7 0 1 1-12.7 12.7 12.7 12.7 0 0 1 12.7-12.7z"/>
    <g fill="#fff">
      <path d="M97.3 543.9a.4.4 0 0 1 0-.5l1.5-1.7a.4.4 0 0 1 .5 0l2.7 2.5a.4.4 0 0 0 .5 0l5.1-6.3c.2-.2.4-.2.5-.1l1.8 1.4a.4.4 0 0 1 0 .5l-7.1 8.8c-.2.1-.3.2-.5 0z"/>
      <path d="M104.8 547.4c2.1.2 3.6.8 3.6 1.5 0 .9-2.7 1.7-6.1 1.7s-6.2-.8-6.2-1.7c0-.7 1.4-1.3 3.6-1.6 0 .2.2.2.2.3-1.4.3-2.4.7-2.4 1.2 0 .7 2.2 1.3 4.8 1.3s4.9-.6 4.9-1.3c0-.5-1-1-2.6-1.2l.2-.3"/>
    </g>
  </g>
</svg>
