<svg xmlns="http://www.w3.org/2000/svg" viewBox="-11 -9.94 136.57 109.96">
  <path fill="#EDF9FF" d="M-10.98-9.94l136.55.15-.56 98.18-135.98-.01V-9.94z"/>
  <path fill="#C4E7F7" d="M-11 86.03h136v14H-11v-14z"/>
  <path fill="#BCE0F3" d="M70.23 3.67a20.5 20.5 0 0 1 20.5 20.51v51.53H69V4.9a1.23 1.23 0 0 1 1.23-1.23z"/>
  <path fill="#fff" d="M54.46 3.67c.55 0 1.08.02 1.76.08 10.43.8 21.13 9.65 21.13 20.43v51.53H53.23V4.9a1.23 1.23 0 0 1 1.23-1.23z"/>
  <path fill="#E8E8E8" d="M57.4 53.88h1.9a.95.95 0 0 1 .96.95v2.86a.95.95 0 0 1-.95.95h-1.9a.95.95 0 0 1-.94-.95v-2.86a.95.95 0 0 1 .95-.95z"/>
  <path fill="#fff" d="M81.46 25.1h17.93a1.9 1.9 0 0 1 1.9 1.9v48.72H79.56V27.01a1.9 1.9 0 0 1 1.9-1.9z"/>
  <path fill="#E8E8E8" d="M63.56 53.88h1.9a.95.95 0 0 1 .95.95v2.86a.95.95 0 0 1-.95.95h-1.9a.95.95 0 0 1-.95-.95v-2.86a.95.95 0 0 1 .95-.95z"/>
  <path fill="#fff" d="M111.91 9.71h12.2s.64.86.64 66h-14.74v-64.1a1.9 1.9 0 0 1 1.9-1.9v.01z"/>
  <path fill="#E7F5F7" d="M114.18 15.9h10.24v2.38h-10.24a1.19 1.19 0 0 1 0-2.38z"/>
  <path fill="#E8E8E8" d="M57.4 62.44h1.9a.95.95 0 0 1 .96.96v2.85a.95.95 0 0 1-.95.95h-1.9a.95.95 0 0 1-.94-.95V63.4a.95.95 0 0 1 .95-.96z"/>
  <path fill="#E7F5F7" d="M114.18 23.51h10.24v2.38h-10.24a1.19 1.19 0 0 1 0-2.38zM114.18 46.37h10.24v2.38h-10.24a1.19 1.19 0 0 1 0-2.38z"/>
  <path fill="#E8E8E8" d="M63.56 62.44h1.9a.95.95 0 0 1 .95.96v2.85a.95.95 0 0 1-.95.95h-1.9a.95.95 0 0 1-.95-.95V63.4a.95.95 0 0 1 .95-.96z"/>
  <path fill="#E7F5F7" d="M114.18 53.98h10.24v2.38h-10.24a1.19 1.19 0 0 1 0-2.38zM114.18 31.13h10.24v2.38h-10.24a1.19 1.19 0 0 1 0-2.38zM114.18 61.6h10.24v2.38h-10.24a1.19 1.19 0 0 1 0-2.38zM114.18 38.75h10.24v2.38h-10.24a1.19 1.19 0 0 1 0-2.38z"/>
  <path fill="#E8E8E8" d="M69.7 53.88h1.9a.95.95 0 0 1 .96.95v2.86a.95.95 0 0 1-.95.95h-1.9a.95.95 0 0 1-.95-.95v-2.86a.95.95 0 0 1 .95-.95zM69.7 62.44h1.9a.95.95 0 0 1 .96.96v2.85a.95.95 0 0 1-.95.95h-1.9a.95.95 0 0 1-.95-.95V63.4a.95.95 0 0 1 .95-.96z"/>
  <path fill="#B8E0E6" d="M96.2 16.54h19.2a2.54 2.54 0 0 1 2.55 2.54v56.64H93.67V19.08a2.54 2.54 0 0 1 2.54-2.54z"/>
  <path fill="#E7F5F7" d="M99.05 23.04a1.9 1.9 0 1 1 0 3.8 1.9 1.9 0 0 1 0-3.8zM99.05 32.08a1.9 1.9 0 1 1 0 3.8 1.9 1.9 0 0 1 0-3.8zM99.05 40.65a1.9 1.9 0 1 1 0 3.8 1.9 1.9 0 0 1 0-3.8zM99.05 48.75a1.9 1.9 0 1 1 0 3.8 1.9 1.9 0 0 1 0-3.8zM99.05 55.89a1.9 1.9 0 1 1 0 3.8 1.9 1.9 0 0 1 0-3.8zM105.57 32.13a1.9 1.9 0 1 1 0 3.8 1.9 1.9 0 0 1 0-3.8zM105.57 40.65a1.9 1.9 0 1 1 0 3.8 1.9 1.9 0 0 1 0-3.8zM105.57 48.75a1.9 1.9 0 1 1 0 3.8 1.9 1.9 0 0 1 0-3.8zM105.57 55.89a1.9 1.9 0 1 1 0 3.8 1.9 1.9 0 0 1 0-3.8zM112.23 23a1.9 1.9 0 1 1 0 3.8 1.9 1.9 0 0 1 0-3.8zM112.23 32.13a1.9 1.9 0 1 1 0 3.8 1.9 1.9 0 0 1 0-3.8zM112.23 40.65a1.9 1.9 0 1 1 0 3.8 1.9 1.9 0 0 1 0-3.8zM112.23 48.75a1.9 1.9 0 1 1 0 3.8 1.9 1.9 0 0 1 0-3.8zM112.23 55.89a1.9 1.9 0 1 1 0 3.8 1.9 1.9 0 0 1 0-3.8z"/>
  <path fill="#E8E8E8" d="M57.4 17.8h1.9a.95.95 0 0 1 .96.95v2.86a.95.95 0 0 1-.95.95h-1.9a.95.95 0 0 1-.94-.95v-2.86a.95.95 0 0 1 .95-.95zM57.4 35.54h1.9a.95.95 0 0 1 .96.95v2.85a.95.95 0 0 1-.95.96h-1.9a.95.95 0 0 1-.94-.96V36.5a.95.95 0 0 1 .95-.95zM57.4 26.36h1.9a.95.95 0 0 1 .96.95v2.86a.95.95 0 0 1-.95.95h-1.9a.95.95 0 0 1-.94-.95v-2.86a.95.95 0 0 1 .95-.95zM57.4 44.1h1.9a.95.95 0 0 1 .96.95v2.86a.95.95 0 0 1-.95.95h-1.9a.95.95 0 0 1-.94-.95v-2.86a.95.95 0 0 1 .95-.95zM63.56 17.8h1.9a.95.95 0 0 1 .95.95v2.86a.95.95 0 0 1-.95.95h-1.9a.95.95 0 0 1-.95-.95v-2.86a.95.95 0 0 1 .95-.95zM63.56 35.54h1.9a.95.95 0 0 1 .95.95v2.85a.95.95 0 0 1-.95.96h-1.9a.95.95 0 0 1-.95-.96V36.5a.95.95 0 0 1 .95-.95zM63.56 26.36h1.9a.95.95 0 0 1 .95.95v2.86a.95.95 0 0 1-.95.95h-1.9a.95.95 0 0 1-.95-.95v-2.86a.95.95 0 0 1 .95-.95zM63.56 44.1h1.9a.95.95 0 0 1 .95.95v2.86a.95.95 0 0 1-.95.95h-1.9a.95.95 0 0 1-.95-.95v-2.86a.95.95 0 0 1 .95-.95zM69.7 17.8h1.9a.95.95 0 0 1 .96.95v2.86a.95.95 0 0 1-.95.95h-1.9a.95.95 0 0 1-.95-.95v-2.86a.95.95 0 0 1 .95-.95zM69.7 35.54h1.9a.95.95 0 0 1 .96.95v2.85a.95.95 0 0 1-.95.96h-1.9a.95.95 0 0 1-.95-.96V36.5a.95.95 0 0 1 .95-.95zM69.7 26.36h1.9a.95.95 0 0 1 .96.95v2.86a.95.95 0 0 1-.95.95h-1.9a.95.95 0 0 1-.95-.95v-2.86a.95.95 0 0 1 .95-.95z"/>
  <path fill="#7FAFB3" d="M67.29 72.8a3.97 3.97 0 0 1-3.96-3.96c0-1.76 1.58-9.09 3.96-9.09s3.96 7.33 3.96 9.1a3.97 3.97 0 0 1-3.96 3.95z"/>
  <path fill="#FFE447" d="M67.55 64.97h-.52v10.97h.52V64.97z"/>
  <path fill="#FFE447" d="M69.04 66.2l-.37-.37-1.56 1.57.36.37 1.57-1.57zM69.04 69.33l-.37-.37-1.56 1.57.36.37 1.57-1.57zM67.47 68.7l-1.82-1.82-.37.37 1.83 1.82.36-.37z"/>
  <path fill="#006169" d="M75.38 72.8a3.12 3.12 0 0 1-3.11-3.11c0-1.42 1.2-7.07 3.11-7.07s3.12 5.65 3.12 7.07a3.12 3.12 0 0 1-3.12 3.11z"/>
  <path fill="#FFE447" d="M75.64 67.32h-.52v8.62h.52v-8.62z"/>
  <path fill="#FFE447" d="M76.87 68.55l-.37-.37-1.3 1.3.37.38 1.3-1.3zM75.56 70.79L74 69.22l-.37.37 1.57 1.57.36-.37z"/>
  <path fill="#006169" d="M111.75 73a2.84 2.84 0 0 0 2.83-2.83c0-1.29-1.1-6.43-2.83-6.43s-2.83 5.14-2.83 6.43a2.84 2.84 0 0 0 2.83 2.83z"/>
  <path fill="#FFE447" d="M111.99 68.01h-.47v7.83h.47v-7.83z"/>
  <path fill="#FFE447" d="M111.58 70.32l.34-.34-1.19-1.18-.33.33 1.18 1.19zM111.92 71.5l1.42-1.42-.33-.34-1.43 1.42.34.34z"/>
  <path fill="#E8E8E8" d="M69.7 44.1h1.9a.95.95 0 0 1 .96.95v2.86a.95.95 0 0 1-.95.95h-1.9a.95.95 0 0 1-.95-.95v-2.86a.95.95 0 0 1 .95-.95zM82.21 32.08h10.24v2.38H82.2a1.2 1.2 0 0 1 0-2.38zM82.21 37.32h10.24v2.38H82.2a1.2 1.2 0 0 1 0-2.38zM82.21 42.56h10.24v2.38H82.2a1.2 1.2 0 0 1 0-2.38zM82.21 47.8h10.24v2.38H82.2a1.2 1.2 0 0 1 0-2.38zM82.21 53.03h10.24v2.38H82.2a1.19 1.19 0 1 1 0-2.38zM82.21 58.27h10.24v2.38H82.2a1.19 1.19 0 1 1 0-2.38zM82.21 63.5h10.24v2.39H82.2a1.2 1.2 0 0 1 0-2.38z"/>
  <path fill="#E7F5F7" d="M105.57 23a1.9 1.9 0 1 1 0 3.8 1.9 1.9 0 0 1 0-3.8z"/>
  <path fill="#90CCEB" d="M121.92 82.93v3.1h-.48v-3.1h-4.4v3.1h-.47v-3.1h-4.4v3.1h-.48v-3.1h-4.4v3.1h-.47v-3.1h-4.4v3.1h-.47v-3.1h-4.4v3.1h-.47v-3.1h-4.4v3.1h-.48v-3.1h-4.4v3.1h-.47v-3.1h-4.4v3.1h-.47v-3.1h-4.3v3.1h-.48v-3.1h-4.4v3.1h-.48v-3.1h-4.4v3.1h-.47v-3.1h-4.4v3.1h-.47v-3.1h-4.4v3.1h-.47v-3.1h-4.4v3.1h-.48v-3.1h-4.4v3.1h-.47v-3.1h-4.4v3.1h-.48v-3.1h-4.4v3.1h-.47v-3.1h-4.4v3.1h-.47v-3.1h-4.4v3.1h-.48v-3.1h-4.4v3.1h-.47v-3.1h-4.4v3.1h-.47v-3.1h-4.3v3.1h-.48v-3.1h-4.4v3.1h-.48v-3.1h-4.4v3.1h-.47v-3.1H.27v3.1H-.2v-3.1h-4.4v3.1h-.48v-3.1h-4.4v3.1h-.48v-3.1H-11v-1.38h136v1.38h-3.08z"/>
  <path fill="#114C6B" d="M21.52 72.99C22.14 72 27.8 68 27.8 68s-2-1.33-.69-2.1c1.3-.76 6.34-.78 6.34-.78s22.62-.27 24.75 0c3.03.66 5.96 1.7 8.72 3.11a45.57 45.57 0 0 1 7.33 4.4c3.53.13 7.05.52 10.52 1.15 4.86.99 6.4 2.23 6.61 2.78.1 1.04.1 2.08 0 3.12.43.5.75 1.1.95 1.72.15.75-.4 5.33-.95 5.67-.73.46-1.56.78-2.42.93-1.29.11-2.58.14-3.88.08 0 0 .73-7.76-6.18-7.75-6.92.02-3.88 7.76-3.88 7.76l-34.6-.21s.13-7.63-6.5-7.55c-6.64.09-6.02 6.96-6.02 6.96-1.04-.3-2.11-.5-3.19-.61-.64.14-1.3.14-1.95 0-.5-.23-2.24-3.2-2.24-3.2a22.5 22.5 0 0 1 0-3.15.82.82 0 0 1 .6-.38l.65-2.75s-.85-3.23-.23-4.21z"/>
  <path fill="#EDF9FF" d="M34.47 69.24l7.9 4.16 28.57 1.31a33.59 33.59 0 0 0-5.91-4.8 20.67 20.67 0 0 0-6.87-2.65c-.85-.11-18.71-.55-20.69 0a5.96 5.96 0 0 0-3 1.98z" opacity=".75"/>
  <path fill="#fff" d="M34.18 70.02l7.8 4.32 9.72.46.3 10.31 1.65.02-.32-10.33 18.03.9c.3.36.49.79.55 1.25a60.96 60.96 0 0 1-.92 8c-.29.57-2.45.36-2.45.36L41.39 85a6.3 6.3 0 0 0-2.02-4.16 7.14 7.14 0 0 0-4.46-1.88s-.62-4.24-.74-5.55a28.61 28.61 0 0 1 0-3.4z" opacity=".05"/>
  <path fill="#F73131" d="M21.95 73.5c.06-.64 2.8-2.55 2.8-2.55l3.76-2.57h.33a55.03 55.03 0 0 0-4.08 4c-.24.5.67.95.67.95 1.28-.09 2.57-.09 3.85 0 .11.19.05.44-.49 1.05a4 4 0 0 1-1.67 1.38c-1.54.21-3.1.21-4.64 0-.75-.26-.57-1.61-.52-2.26z"/>
  <path fill="#0A2E40" d="M79 92.87a6.62 6.62 0 1 0 0-13.25 6.62 6.62 0 0 0 0 13.25z"/>
  <path fill="#E8F5FB" d="M79.1 91.08a4.84 4.84 0 1 0 0-9.68 4.84 4.84 0 0 0 0 9.68z"/>
  <path fill="#0A2E40" d="M79.56 81.4h-.92v4.84h.92V81.4z"/>
  <path fill="#0A2E40" d="M83.98 85.28l-.28-.88-4.6 1.5.28.87 4.6-1.5z"/>
  <path fill="#0A2E40" d="M81.67 90.52l.74-.54-2.84-3.91-.75.54 2.85 3.91z"/>
  <path fill="#0A2E40" d="M75.58 90.16l.74.54 2.85-3.92-.75-.54-2.84 3.92z"/>
  <path fill="#0A2E40" d="M74.57 84.27l-.29.88 4.6 1.5.29-.89-4.6-1.5z"/>
  <path fill="#E8F5FB" d="M79.1 90.39a4.15 4.15 0 1 0 0-8.3 4.15 4.15 0 0 0 0 8.3z" opacity=".25"/>
  <path fill="#0A2E40" d="M79.1 87.85a1.61 1.61 0 1 0 0-3.22 1.61 1.61 0 0 0 0 3.22z"/>
  <path fill="#0A2E40" d="M79.1 88.09a1.84 1.84 0 1 0 0-3.7 1.84 1.84 0 0 0 0 3.7zM34.22 92.87a6.62 6.62 0 1 0 0-13.25 6.62 6.62 0 0 0 0 13.25z"/>
  <path fill="#E8F5FB" d="M34.32 91.08a4.84 4.84 0 1 0 0-9.68 4.84 4.84 0 0 0 0 9.68z"/>
  <path fill="#0A2E40" d="M34.79 81.4h-.93v4.84h.93V81.4z"/>
  <path fill="#0A2E40" d="M39.21 85.28l-.28-.88-4.6 1.5.28.87 4.6-1.5z"/>
  <path fill="#0A2E40" d="M36.9 90.52l.74-.54-2.85-3.91-.74.54 2.84 3.91z"/>
  <path fill="#0A2E40" d="M30.8 90.16l.75.54 2.85-3.92-.75-.54-2.84 3.92z"/>
  <path fill="#0A2E40" d="M29.8 84.27l-.3.88 4.61 1.5.29-.89-4.6-1.5z"/>
  <path fill="#E8F5FB" d="M34.32 90.39a4.15 4.15 0 1 0 0-8.3 4.15 4.15 0 0 0 0 8.3z" opacity=".25"/>
  <path fill="#0A2E40" d="M34.32 87.85a1.61 1.61 0 1 0 0-3.22 1.61 1.61 0 0 0 0 3.22z"/>
  <path fill="#DEDEDE" d="M84.81 76.02c.55.8 1.26 1.47 2.1 1.95.92.4 1.92.6 2.92.56 0 0 .89-1.55.56-1.8-1.84-.33-3.7-.57-5.58-.71z"/>
  <path fill="#114C6B" d="M41.77 66.97h.57l.07 6.45-.64-.29v-6.16zM51.45 66.98h.57v7.05l-.86-.15.29-6.9zM52.64 66.98h-.58l.08 6.9 1.14.05-.64-6.95z"/>
  <path fill="#E9F6FB" d="M67.92 74.53s-.42-.18-.42-.33c-.05-.5 0-1 .18-1.46a.82.82 0 0 1 .83-.58 3.2 3.2 0 0 1 1.95.58 1.67 1.67 0 0 1 .7 1.31.53.53 0 0 1-.4.65c-.33.06-2.84-.17-2.84-.17z"/>
  <path fill="#0A2E40" d="M38.31 76.45v.26c.35.2.75.3 1.16.33.42-.02.83-.14 1.2-.33v-.24c-.4.06-.8.1-1.2.11a4.5 4.5 0 0 1-1.16-.13zM54.56 76.45v.26c.35.2.75.3 1.15.33.42-.02.84-.14 1.21-.33v-.24c-.4.06-.8.1-1.2.11a4.5 4.5 0 0 1-1.16-.13z"/>
  <path fill="#E9F6FB" d="M54.21 76.86s-.18-.3 0-.48c.45-.24.97-.34 1.48-.27.53-.07 1.07.03 1.55.27a.35.35 0 0 1 0 .46 9.27 9.27 0 0 0-1.55-.21c-.51 0-1.01.07-1.49.23zM37.96 76.86s-.17-.3 0-.48c.46-.24.97-.33 1.48-.27.53-.05 1.07.04 1.55.27.23.17 0 .46 0 .46a9.27 9.27 0 0 0-1.55-.21c-.5 0-1 .07-1.48.23z"/>
</svg>
